<?xml version="1.0" standalone="no"?>
<!DOCTYPE svg PUBLIC "-//W3C//DTD SVG 20010904//EN"
 "http://www.w3.org/TR/2001/REC-SVG-20010904/DTD/svg10.dtd">
<svg version="1.0" xmlns="http://www.w3.org/2000/svg"
 width="216.000000pt" height="207.000000pt" viewBox="0 0 216.000000 207.000000"
 preserveAspectRatio="xMidYMid meet">
    <metadata>
Created by potrace 1.10, written by Peter Selinger 2001-2011
</metadata>
    <g transform="translate(0.000000,207.000000) scale(0.100000,-0.100000)"
fill="#000000" stroke="none">
        <path d="M403 1944 c-7 -3 -13 -18 -13 -33 0 -24 42 -61 331 -292 181 -145
339 -264 349 -264 21 0 675 518 684 542 9 23 -12 53 -37 53 -14 0 -137 -93
-334 -251 l-312 -251 -311 248 c-171 137 -318 250 -328 251 -9 1 -23 -1 -29
-3z"/>
        <path d="M160 1495 c-6 -8 -10 -22 -8 -32 2 -10 133 -122 291 -249 159 -127
293 -236 299 -242 7 -7 -4 -28 -37 -69 -88 -107 -121 -211 -112 -348 9 -143
74 -263 187 -348 81 -61 155 -88 260 -94 282 -17 510 197 510 477 0 121 -35
217 -116 315 -25 31 -43 60 -39 63 3 4 135 111 292 237 158 127 291 238 297
247 14 23 -3 52 -32 56 -14 2 -114 -72 -332 -246 l-312 -249 -61 26 c-55 23
-75 26 -177 26 -101 0 -123 -4 -177 -26 l-62 -26 -311 248 c-171 137 -319 249
-329 249 -10 0 -24 -7 -31 -15z m981 -515 c118 -22 230 -107 282 -214 35 -71
51 -178 36 -248 -46 -217 -256 -358 -469 -314 -168 35 -284 161 -311 338 -19
124 23 242 119 335 94 90 217 127 343 103z"/>
    </g>
</svg>